<mxfile host="app.diagrams.net" modified="2023-07-08T13:06:42.652Z" agent="Mozilla/5.0 (Macintosh; Intel Mac OS X 10_15_7) AppleWebKit/605.1.15 (KHTML, like Gecko) Version/16.5.1 Safari/605.1.15" etag="A45wmoVX-ST1qPxaXCFw" version="21.6.1" type="device">
  <diagram name="Page-1" id="DraU54kAf4fVK4COyQQv">
    <mxGraphModel dx="635" dy="1130" grid="1" gridSize="10" guides="1" tooltips="1" connect="1" arrows="1" fold="1" page="0" pageScale="1" pageWidth="850" pageHeight="1100" math="0" shadow="0">
      <root>
        <mxCell id="0" />
        <mxCell id="1" parent="0" />
        <mxCell id="oCBchRi50ZXFFnA1Zzt_-27" value="" style="rounded=0;whiteSpace=wrap;html=1;fillColor=none;strokeWidth=2;" parent="1" vertex="1">
          <mxGeometry x="30.5" y="220.5" width="390" height="330" as="geometry" />
        </mxCell>
        <mxCell id="oCBchRi50ZXFFnA1Zzt_-26" value="" style="rounded=0;whiteSpace=wrap;html=1;fillColor=none;dashed=1;" parent="1" vertex="1">
          <mxGeometry x="90" y="420" width="100" height="100" as="geometry" />
        </mxCell>
        <mxCell id="oCBchRi50ZXFFnA1Zzt_-19" value="" style="rounded=0;whiteSpace=wrap;html=1;fillColor=none;dashed=1;" parent="1" vertex="1">
          <mxGeometry x="90" y="270" width="320" height="50" as="geometry" />
        </mxCell>
        <mxCell id="oCBchRi50ZXFFnA1Zzt_-8" style="edgeStyle=orthogonalEdgeStyle;rounded=0;orthogonalLoop=1;jettySize=auto;html=1;exitX=0;exitY=1;exitDx=0;exitDy=0;entryX=0;entryY=0.5;entryDx=0;entryDy=0;" parent="1" source="oCBchRi50ZXFFnA1Zzt_-2" target="oCBchRi50ZXFFnA1Zzt_-3" edge="1">
          <mxGeometry relative="1" as="geometry" />
        </mxCell>
        <mxCell id="oCBchRi50ZXFFnA1Zzt_-9" style="edgeStyle=orthogonalEdgeStyle;rounded=0;orthogonalLoop=1;jettySize=auto;html=1;exitX=0;exitY=1;exitDx=0;exitDy=0;entryX=0;entryY=0.5;entryDx=0;entryDy=0;" parent="1" source="oCBchRi50ZXFFnA1Zzt_-2" target="oCBchRi50ZXFFnA1Zzt_-4" edge="1">
          <mxGeometry relative="1" as="geometry" />
        </mxCell>
        <mxCell id="oCBchRi50ZXFFnA1Zzt_-15" style="edgeStyle=orthogonalEdgeStyle;rounded=0;orthogonalLoop=1;jettySize=auto;html=1;exitX=0;exitY=0.5;exitDx=0;exitDy=0;endArrow=none;endFill=0;startArrow=classic;startFill=1;" parent="1" source="oCBchRi50ZXFFnA1Zzt_-2" edge="1">
          <mxGeometry relative="1" as="geometry">
            <mxPoint x="40" y="220" as="targetPoint" />
            <Array as="points">
              <mxPoint x="40" y="245" />
              <mxPoint x="40" y="220" />
            </Array>
          </mxGeometry>
        </mxCell>
        <mxCell id="oCBchRi50ZXFFnA1Zzt_-2" value="&lt;font style=&quot;font-size: 16px;&quot; face=&quot;LMRoman10-Regular&quot;&gt;&lt;b&gt;Fixup Root 1&lt;/b&gt;&lt;/font&gt;" style="rounded=0;whiteSpace=wrap;html=1;strokeWidth=2;" parent="1" vertex="1">
          <mxGeometry x="70.5" y="230.5" width="100" height="30" as="geometry" />
        </mxCell>
        <mxCell id="oCBchRi50ZXFFnA1Zzt_-10" style="edgeStyle=orthogonalEdgeStyle;rounded=0;orthogonalLoop=1;jettySize=auto;html=1;exitX=1;exitY=0.5;exitDx=0;exitDy=0;entryX=0;entryY=0.5;entryDx=0;entryDy=0;" parent="1" source="oCBchRi50ZXFFnA1Zzt_-3" target="oCBchRi50ZXFFnA1Zzt_-7" edge="1">
          <mxGeometry relative="1" as="geometry" />
        </mxCell>
        <mxCell id="oCBchRi50ZXFFnA1Zzt_-3" value="&lt;font face=&quot;LMRoman10-Regular&quot;&gt;&lt;font size=&quot;3&quot;&gt;Fixup&amp;nbsp;1&lt;/font&gt;&lt;/font&gt;" style="rounded=0;whiteSpace=wrap;html=1;" parent="1" vertex="1">
          <mxGeometry x="100" y="280" width="80" height="30" as="geometry" />
        </mxCell>
        <mxCell id="oCBchRi50ZXFFnA1Zzt_-4" value="&lt;font face=&quot;LMRoman10-Regular&quot;&gt;&lt;font size=&quot;3&quot;&gt;Fixup&amp;nbsp;4&lt;/font&gt;&lt;/font&gt;" style="rounded=0;whiteSpace=wrap;html=1;" parent="1" vertex="1">
          <mxGeometry x="100" y="330" width="80" height="30" as="geometry" />
        </mxCell>
        <mxCell id="oCBchRi50ZXFFnA1Zzt_-12" style="edgeStyle=orthogonalEdgeStyle;rounded=0;orthogonalLoop=1;jettySize=auto;html=1;exitX=0;exitY=1;exitDx=0;exitDy=0;entryX=0;entryY=0.5;entryDx=0;entryDy=0;" parent="1" source="oCBchRi50ZXFFnA1Zzt_-5" target="oCBchRi50ZXFFnA1Zzt_-6" edge="1">
          <mxGeometry relative="1" as="geometry" />
        </mxCell>
        <mxCell id="oCBchRi50ZXFFnA1Zzt_-25" style="edgeStyle=orthogonalEdgeStyle;rounded=0;orthogonalLoop=1;jettySize=auto;html=1;exitX=0;exitY=1;exitDx=0;exitDy=0;entryX=0;entryY=0.5;entryDx=0;entryDy=0;" parent="1" source="oCBchRi50ZXFFnA1Zzt_-5" target="oCBchRi50ZXFFnA1Zzt_-23" edge="1">
          <mxGeometry relative="1" as="geometry" />
        </mxCell>
        <mxCell id="oCBchRi50ZXFFnA1Zzt_-33" style="edgeStyle=orthogonalEdgeStyle;rounded=0;orthogonalLoop=1;jettySize=auto;html=1;exitX=0;exitY=0.5;exitDx=0;exitDy=0;endArrow=none;endFill=0;startArrow=classic;startFill=1;" parent="1" source="oCBchRi50ZXFFnA1Zzt_-5" edge="1">
          <mxGeometry relative="1" as="geometry">
            <mxPoint x="40" y="220" as="targetPoint" />
          </mxGeometry>
        </mxCell>
        <mxCell id="oCBchRi50ZXFFnA1Zzt_-5" value="&lt;font face=&quot;LMRoman10-Regular&quot;&gt;&lt;font size=&quot;3&quot;&gt;&lt;b&gt;Fixup&amp;nbsp;Root 2&lt;/b&gt;&lt;/font&gt;&lt;/font&gt;" style="rounded=0;whiteSpace=wrap;html=1;strokeWidth=2;" parent="1" vertex="1">
          <mxGeometry x="70.5" y="380.5" width="100" height="30" as="geometry" />
        </mxCell>
        <mxCell id="oCBchRi50ZXFFnA1Zzt_-31" style="edgeStyle=orthogonalEdgeStyle;rounded=0;orthogonalLoop=1;jettySize=auto;html=1;exitX=1;exitY=0.5;exitDx=0;exitDy=0;entryX=0;entryY=0.5;entryDx=0;entryDy=0;" parent="1" source="oCBchRi50ZXFFnA1Zzt_-6" target="oCBchRi50ZXFFnA1Zzt_-30" edge="1">
          <mxGeometry relative="1" as="geometry" />
        </mxCell>
        <mxCell id="oCBchRi50ZXFFnA1Zzt_-6" value="&lt;font face=&quot;LMRoman10-Regular&quot;&gt;&lt;font size=&quot;3&quot;&gt;Fixup&amp;nbsp;6&lt;/font&gt;&lt;/font&gt;" style="rounded=0;whiteSpace=wrap;html=1;" parent="1" vertex="1">
          <mxGeometry x="100" y="430" width="80" height="30" as="geometry" />
        </mxCell>
        <mxCell id="oCBchRi50ZXFFnA1Zzt_-14" style="edgeStyle=orthogonalEdgeStyle;rounded=0;orthogonalLoop=1;jettySize=auto;html=1;exitX=1;exitY=0.5;exitDx=0;exitDy=0;entryX=0;entryY=0.5;entryDx=0;entryDy=0;" parent="1" source="oCBchRi50ZXFFnA1Zzt_-7" target="oCBchRi50ZXFFnA1Zzt_-13" edge="1">
          <mxGeometry relative="1" as="geometry" />
        </mxCell>
        <mxCell id="oCBchRi50ZXFFnA1Zzt_-7" value="&lt;font face=&quot;LMRoman10-Regular&quot;&gt;&lt;font size=&quot;3&quot;&gt;Fixup&amp;nbsp;2&lt;/font&gt;&lt;/font&gt;" style="rounded=0;whiteSpace=wrap;html=1;" parent="1" vertex="1">
          <mxGeometry x="210" y="280" width="80" height="30" as="geometry" />
        </mxCell>
        <mxCell id="oCBchRi50ZXFFnA1Zzt_-13" value="&lt;font face=&quot;LMRoman10-Regular&quot;&gt;&lt;font size=&quot;3&quot;&gt;Fixup&amp;nbsp;3&lt;/font&gt;&lt;/font&gt;" style="rounded=0;whiteSpace=wrap;html=1;" parent="1" vertex="1">
          <mxGeometry x="320" y="280" width="80" height="30" as="geometry" />
        </mxCell>
        <mxCell id="oCBchRi50ZXFFnA1Zzt_-21" value="&lt;b&gt;Fixup Chain&lt;/b&gt;" style="text;html=1;strokeColor=none;fillColor=none;align=right;verticalAlign=middle;whiteSpace=wrap;rounded=0;fontFamily=LMRoman10-Regular;fontSize=16;fontStyle=0" parent="1" vertex="1">
          <mxGeometry x="320" y="320" width="90" height="30" as="geometry" />
        </mxCell>
        <mxCell id="oCBchRi50ZXFFnA1Zzt_-23" value="&lt;font face=&quot;LMRoman10-Regular&quot;&gt;&lt;font size=&quot;3&quot;&gt;Fixup 8&lt;/font&gt;&lt;/font&gt;" style="rounded=0;whiteSpace=wrap;html=1;" parent="1" vertex="1">
          <mxGeometry x="100" y="480" width="80" height="30" as="geometry" />
        </mxCell>
        <mxCell id="oCBchRi50ZXFFnA1Zzt_-29" value="&lt;b&gt;UE Relocation Information&lt;/b&gt;" style="text;html=1;strokeColor=none;fillColor=none;align=center;verticalAlign=middle;whiteSpace=wrap;rounded=0;fontFamily=LMRoman10-Regular;fontSize=16;fontColor=default;" parent="1" vertex="1">
          <mxGeometry x="30" y="190" width="390" height="30" as="geometry" />
        </mxCell>
        <mxCell id="oCBchRi50ZXFFnA1Zzt_-30" value="&lt;font face=&quot;LMRoman10-Regular&quot;&gt;&lt;font size=&quot;3&quot;&gt;Fixup&amp;nbsp;7&lt;/font&gt;&lt;/font&gt;" style="rounded=0;whiteSpace=wrap;html=1;" parent="1" vertex="1">
          <mxGeometry x="210" y="430" width="80" height="30" as="geometry" />
        </mxCell>
        <mxCell id="oCBchRi50ZXFFnA1Zzt_-34" value="&lt;b&gt;Head Fixups&lt;/b&gt;" style="text;html=1;strokeColor=none;fillColor=none;align=center;verticalAlign=middle;whiteSpace=wrap;rounded=0;fontFamily=LMRoman10-Regular;fontSize=16;fontStyle=0" parent="1" vertex="1">
          <mxGeometry x="95" y="520" width="90" height="30" as="geometry" />
        </mxCell>
      </root>
    </mxGraphModel>
  </diagram>
</mxfile>
